<?xml version="1.0" standalone="no"?><!DOCTYPE svg PUBLIC "-//W3C//DTD SVG 1.1//EN" "http://www.w3.org/Graphics/SVG/1.1/DTD/svg11.dtd"><svg t="1764920792466" class="icon" viewBox="0 0 1024 1024" version="1.1" xmlns="http://www.w3.org/2000/svg" p-id="8409" xmlns:xlink="http://www.w3.org/1999/xlink" width="200" height="200"><path d="M899.005706 124.750235c-6.27696-6.258541-14.833847-10.256598-24.530696-10.256598L149.907707 114.493637c-9.117658 0-18.235316 3.998057-24.533766 10.256598l0 0c-6.257517 6.27696-9.695826 14.815427-9.695826 24.511253l0 0L115.678114 873.046986l0 0c0 9.68764 3.437286 18.234293 9.695826 24.503067l0 0c6.297426 6.266727 15.415085 9.686616 24.533766 9.686616l724.567303 0c9.69685 0 18.253736-3.419889 24.530696-9.686616 6.277984-6.268774 10.276041-14.81645 10.276041-24.503067l0 0L909.281747 149.262512l0 0C909.281747 139.565662 905.28369 131.027196 899.005706 124.750235L899.005706 124.750235zM63.757604 873.046986 63.757604 149.262512l0 0c0-23.933085 9.69685-45.586245 25.111934-60.97984 15.972786-15.396665 37.664831-25.073048 61.038168-25.073048l724.567303 0c23.969924 0 45.64355 9.676383 61.056588 25.073048l0 0c15.395642 15.393595 25.092491 37.046754 25.092491 60.97984l0 0L960.624089 873.046986l0 0c0 23.363104-9.69685 45.016263-25.092491 60.971653l0 0c-15.414061 15.395642-37.086663 25.082258-61.056588 25.082258L149.907707 959.100898c-23.37436 0-45.065382-9.686616-61.038168-25.082258l0 0C73.453431 918.064272 63.757604 896.41009 63.757604 873.046986L63.757604 873.046986zM387.823328 299.155381c-1.13894-2.859118-1.720178-5.717212-1.720178-9.116635l0 0c0-7.416923 2.860141-13.69593 7.41897-18.253736l0 0c4.557806-4.559852 10.854209-7.978718 18.273179-7.978718 3.417843 0 6.836709 1.13894 10.254551 2.279926 1.719154 1.13894 3.419889 2.279926 5.13802 3.419889l0.561795 0 2.858094 2.858094L631.99749 493.476111l4.579295 5.13802-0.579191 0.580215c0.579191 1.139963 0.579191 1.699712 1.139963 2.279926 1.137916 3.417843 1.719154 6.257517 1.719154 9.676383s-0.580215 6.268774-1.719154 9.117658l0 0c-0.560772 0.569982-0.560772 1.708921-1.139963 2.279926l1.139963 0.569982-5.139044 5.127787L430.609807 749.376339l-2.858094 3.418866-0.561795 0c-1.719154 1.139963-3.419889 2.28095-5.13802 2.849908-3.418866 1.708921-6.837732 2.278903-10.254551 2.278903l0 0 0 0c-7.41897 0-13.715373-2.847861-18.273179-7.407714l0 0c-4.558829-4.558829-7.41897-11.396561-7.41897-18.234293l0 0c0-3.428076 0.580215-6.27696 1.720178-9.69685 0-0.569982 0.560772-1.139963 0.560772-1.709945l-0.560772-0.569982 4.579295-5.696746 185.414897-203.457832L392.402623 307.134099l-5.139044-5.698792 1.121544-0.580215C388.3841 300.295344 387.823328 299.715129 387.823328 299.155381L387.823328 299.155381z" fill="#231915" p-id="8410"></path></svg>