<?xml version="1.0" standalone="no"?><!DOCTYPE svg PUBLIC "-//W3C//DTD SVG 1.1//EN" "http://www.w3.org/Graphics/SVG/1.1/DTD/svg11.dtd"><svg t="1764920780935" class="icon" viewBox="0 0 1024 1024" version="1.1" xmlns="http://www.w3.org/2000/svg" p-id="8259" xmlns:xlink="http://www.w3.org/1999/xlink" width="200" height="200"><path d="M125.375987 124.750235c-6.277984 6.27696-10.276041 14.815427-10.276041 24.511253l0 0L115.099946 873.046986l0 0c0 9.68764 3.998057 18.234293 10.276041 24.503067 6.27696 6.266727 14.833847 9.686616 24.530696 9.686616l724.568327 0c9.117658 0 18.235316-3.419889 24.533766-9.686616l0 0c6.257517-6.268774 9.695826-14.81645 9.695826-24.503067l0 0L908.704602 149.262512l0 0c0-9.69685-3.437286-18.234293-9.695826-24.511253l0 0c-6.297426-6.258541-15.415085-10.256598-24.533766-10.256598L149.906683 114.494661C140.209834 114.493637 131.652947 118.491695 125.375987 124.750235L125.375987 124.750235zM960.625112 873.046986c0 23.363104-9.69685 45.016263-25.111934 60.971653l0 0c-15.972786 15.395642-37.664831 25.082258-61.038168 25.082258L149.906683 959.100898c-23.969924 0-45.64355-9.686616-61.056588-25.082258l0 0c-15.395642-15.95539-25.092491-37.608549-25.092491-60.971653l0 0L63.757604 149.262512l0 0c0-23.933085 9.69685-45.586245 25.092491-60.97984l0 0c15.414061-15.396665 37.086663-25.073048 61.056588-25.073048l724.568327 0c23.37436 0 45.065382 9.676383 61.038168 25.073048 15.415085 15.393595 25.111934 37.046754 25.111934 60.97984l0 0L960.625112 873.046986 960.625112 873.046986zM636.559389 299.155381c0 0.559748-0.560772 1.139963-0.560772 1.698688l1.121544 0.580215-5.139044 5.698792L446.564173 511.149633l185.41592 203.457832 4.579295 5.696746-0.560772 0.569982c0 0.569982 0.560772 1.139963 0.560772 1.709945 1.13894 3.419889 1.720178 6.268774 1.720178 9.69685l0 0c0 6.838755-2.860141 13.675464-7.41897 18.234293l0 0c-4.557806 4.559852-10.854209 7.407714-18.273179 7.407714l0 0 0 0c-3.417843 0-6.836709-0.569982-10.254551-2.278903-1.719154-0.569982-3.419889-1.709945-5.13802-2.849908l-0.561795 0-2.858094-3.418866L392.384204 528.244986l-5.139044-5.127787 1.139963-0.569982c-0.579191-0.571005-0.579191-1.709945-1.139963-2.279926l0 0c-1.137916-2.848884-1.719154-5.698792-1.719154-9.117658s0.580215-6.258541 1.719154-9.676383c0.560772-0.579191 0.560772-1.13894 1.139963-2.279926l-0.579191-0.580215 4.579295-5.13802 201.388706-221.11191 2.858094-2.858094 0.561795 0c1.719154-1.139963 3.419889-2.28095 5.13802-3.419889 3.418866-1.139963 6.837732-2.279926 10.254551-2.279926 7.41897 0 13.715373 3.418866 18.273179 7.978718l0 0c4.558829 4.557806 7.41897 10.836813 7.41897 18.253736l0 0C638.278543 293.438169 637.698329 296.296263 636.559389 299.155381L636.559389 299.155381z" fill="#231915" p-id="8260"></path></svg>